<svg width="211" height="64" viewBox="0 0 211 64" fill="none" xmlns="http://www.w3.org/2000/svg">
<g clip-path="url(#clip0_984_42)">
<path d="M163.707 63.9996C162.86 63.9996 162.085 63.8446 161.381 63.5346C160.678 63.2126 160.081 62.7773 159.592 62.2288C159.103 61.6802 158.752 61.0661 158.537 60.3863L160.057 59.7603C160.379 60.6189 160.856 61.2807 161.488 61.7458C162.132 62.199 162.884 62.4255 163.742 62.4255C164.267 62.4255 164.726 62.3421 165.12 62.1751C165.513 62.0082 165.817 61.7756 166.032 61.4775C166.258 61.1674 166.372 60.8097 166.372 60.4042C166.372 59.8438 166.211 59.4025 165.889 59.0806C165.579 58.7467 165.12 58.4962 164.511 58.3293L162.061 57.578C161.095 57.2799 160.356 56.8088 159.843 56.1649C159.33 55.5209 159.074 54.7816 159.074 53.9468C159.074 53.2194 159.247 52.5814 159.592 52.0329C159.95 51.4724 160.439 51.0371 161.059 50.7271C161.691 50.4051 162.407 50.2441 163.206 50.2441C164.005 50.2441 164.726 50.3872 165.37 50.6734C166.026 50.9596 166.58 51.3472 167.034 51.8361C167.487 52.3131 167.821 52.8617 168.035 53.4818L166.533 54.1078C166.247 53.3566 165.817 52.7901 165.245 52.4085C164.672 52.015 163.999 51.8182 163.224 51.8182C162.747 51.8182 162.323 51.9017 161.954 52.0687C161.596 52.2237 161.316 52.4562 161.113 52.7663C160.922 53.0644 160.827 53.4221 160.827 53.8395C160.827 54.3284 160.982 54.7637 161.292 55.1453C161.602 55.5269 162.073 55.8191 162.705 56.0218L164.941 56.6836C165.99 57.0056 166.783 57.4647 167.32 58.061C167.856 58.6572 168.125 59.3966 168.125 60.279C168.125 61.0065 167.934 61.6504 167.552 62.2109C167.183 62.7714 166.664 63.2126 165.996 63.5346C165.34 63.8446 164.577 63.9996 163.707 63.9996Z" fill="white"/>
<path d="M144.06 63.7852V50.459H145.813V57.9538L145.384 57.775L151.752 50.459H153.952L148.603 56.6302L148.693 55.378L154.22 63.7852H152.127L147.906 57.453L145.813 59.8499V63.7852H144.06Z" fill="white"/>
<path d="M129.062 63.7852V50.459H133.767C134.649 50.459 135.424 50.6259 136.092 50.9598C136.76 51.2937 137.279 51.7707 137.648 52.3908C138.03 53.0109 138.221 53.7384 138.221 54.5731C138.221 55.5152 137.982 56.3142 137.505 56.97C137.028 57.6259 136.384 58.0969 135.573 58.3831L138.668 63.7852H136.629L133.373 58.0075L134.536 58.6872H130.815V63.7852H129.062ZM130.815 57.0774H133.82C134.345 57.0774 134.804 56.976 135.198 56.7733C135.591 56.5705 135.895 56.2784 136.11 55.8968C136.337 55.5152 136.45 55.074 136.45 54.5731C136.45 54.0603 136.337 53.6191 136.11 53.2494C135.895 52.8678 135.591 52.5757 135.198 52.3729C134.804 52.1702 134.345 52.0689 133.82 52.0689H130.815V57.0774Z" fill="white"/>
<path d="M116.327 63.9996C115.385 63.9996 114.503 63.8327 113.68 63.4988C112.857 63.153 112.136 62.67 111.516 62.0499C110.907 61.4298 110.43 60.7024 110.085 59.8676C109.739 59.0209 109.566 58.1027 109.566 57.1129C109.566 56.1112 109.739 55.193 110.085 54.3583C110.43 53.5235 110.907 52.7961 111.516 52.176C112.136 51.5559 112.851 51.0789 113.662 50.745C114.485 50.4111 115.373 50.2441 116.327 50.2441C117.281 50.2441 118.164 50.417 118.975 50.7629C119.798 51.0968 120.513 51.5738 121.121 52.1939C121.741 52.802 122.224 53.5235 122.57 54.3583C122.928 55.193 123.107 56.1112 123.107 57.1129C123.107 58.1027 122.928 59.0209 122.57 59.8676C122.224 60.7024 121.741 61.4298 121.121 62.0499C120.513 62.67 119.798 63.153 118.975 63.4988C118.164 63.8327 117.281 63.9996 116.327 63.9996ZM116.327 62.3719C117.067 62.3719 117.74 62.2407 118.349 61.9783C118.957 61.7041 119.481 61.3284 119.923 60.8514C120.376 60.3625 120.722 59.802 120.96 59.17C121.211 58.526 121.336 57.8404 121.336 57.1129C121.336 56.3855 121.211 55.7058 120.96 55.0738C120.722 54.4417 120.376 53.8872 119.923 53.4102C119.481 52.9213 118.957 52.5457 118.349 52.2833C117.74 52.009 117.067 51.8719 116.327 51.8719C115.6 51.8719 114.932 52.009 114.324 52.2833C113.716 52.5457 113.185 52.9213 112.732 53.4102C112.291 53.8872 111.945 54.4417 111.694 55.0738C111.444 55.7058 111.319 56.3855 111.319 57.1129C111.319 57.8404 111.444 58.526 111.694 59.17C111.945 59.802 112.291 60.3625 112.732 60.8514C113.185 61.3284 113.716 61.7041 114.324 61.9783C114.932 62.2407 115.6 62.3719 116.327 62.3719Z" fill="white"/>
<path d="M91.543 63.7852L87.8044 50.459H89.6469L92.7772 62.1932H92.3479L95.6034 50.459H97.4459L100.684 62.1932H100.236L103.385 50.459H105.227L101.488 63.7852H99.5387L96.2832 52.1046H96.7483L93.4927 63.7852H91.543Z" fill="white"/>
<path d="M78.6736 63.7852V52.0689H75.0603V50.459H84.0041V52.0689H80.4445V63.7852H78.6736Z" fill="white"/>
<path d="M62.1018 63.7852V50.459H70.7773V52.0689H63.8548V56.2903H70.4196V57.9002H63.8548V62.1753H70.7773V63.7852H62.1018Z" fill="white"/>
<path d="M45.4972 63.7852V50.459H46.964L54.6199 61.2273L53.958 61.2988V50.459H55.7289V63.7852H54.2621L46.642 52.9453L47.2502 52.8738V63.7852H45.4972Z" fill="white"/>
<path fill-rule="evenodd" clip-rule="evenodd" d="M193.656 10.4097C194.428 10.079 195.304 10.3301 195.897 10.9238L199.067 14.0937C199.196 14.2222 199.095 14.4469 198.914 14.4469C197.639 14.4469 196.512 14.7582 195.534 15.3807C194.586 16.0033 193.845 16.8629 193.311 17.9596C192.778 19.0562 192.511 20.3161 192.511 21.7392C192.511 23.1916 192.778 24.4808 193.311 25.6072C193.845 26.7043 194.586 27.5639 195.534 28.1861C196.512 28.8087 197.639 29.12 198.914 29.12C200.188 29.12 201.315 28.8087 202.293 28.1861C203.271 27.5639 204.027 26.7043 204.561 25.6072C205.124 24.4808 205.405 23.1916 205.405 21.7392C205.405 21.6489 205.404 21.5591 205.402 21.4701L205.398 21.3487V21.3389C205.385 21.017 205.793 20.8197 206.021 21.0475L209.946 24.973C210.455 25.4819 210.741 26.172 210.741 26.8917V33.5221H205.183V30.2335C205.026 30.439 204.857 30.6386 204.676 30.8325C204.268 31.2697 203.799 31.677 203.271 32.0546C202.471 32.618 201.567 33.0774 200.559 33.4332C199.581 33.7889 198.528 33.9664 197.402 33.9664C195.475 33.9664 193.726 33.4332 192.155 32.3659C190.584 31.2986 189.324 29.8462 188.376 28.0086C187.427 26.1707 186.953 24.081 186.953 21.7392C186.953 19.3973 187.427 17.3077 188.376 15.4697C189.324 13.6317 190.614 12.194 192.244 11.1565C192.699 10.8673 193.169 10.6184 193.656 10.4097Z" fill="white"/>
<path fill-rule="evenodd" clip-rule="evenodd" d="M210.743 10.0888C210.744 9.8187 210.525 9.59961 210.255 9.59961H199.371C198.87 9.59961 198.619 10.205 198.973 10.559L209.784 21.3699C210.138 21.724 210.743 21.4732 210.743 20.9725V10.0888Z" fill="#FF3A41"/>
<path d="M168.663 33.9665V9.77736H174.217L174.309 17.4885L173.529 15.7443C173.865 14.5203 174.447 13.4187 175.273 12.4395C176.099 11.4603 177.048 10.6954 178.119 10.1446C179.22 9.56316 180.368 9.27246 181.561 9.27246C182.082 9.27246 182.571 9.31837 183.03 9.41017C183.52 9.50197 183.918 9.60906 184.224 9.73146L182.709 15.9279C182.372 15.7443 181.959 15.5913 181.47 15.4689C180.98 15.3465 180.49 15.2853 180.001 15.2853C179.236 15.2853 178.501 15.4383 177.798 15.7443C177.124 16.0197 176.528 16.4175 176.007 16.9377C175.487 17.4579 175.074 18.0699 174.768 18.7737C174.493 19.4469 174.355 20.2119 174.355 21.0687V33.9665H168.663Z" fill="white"/>
<path d="M148.531 34.4247C146.389 34.4247 144.461 33.8892 142.747 32.8182C141.064 31.7166 139.718 30.2326 138.708 28.366C137.729 26.4688 137.239 24.2962 137.239 21.8482C137.239 19.4308 137.729 17.2736 138.708 15.3764C139.687 13.4792 141.018 11.9951 142.701 10.9241C144.415 9.82252 146.343 9.27172 148.485 9.27172C149.648 9.27172 150.765 9.45532 151.836 9.82252C152.937 10.1897 153.916 10.6946 154.773 11.3372C155.63 11.9492 156.303 12.6377 156.793 13.4027C157.313 14.1677 157.604 14.9633 157.665 15.7895L156.15 15.9731V0H161.796V33.9657H156.334L156.196 28.2742L157.298 28.366C157.267 29.131 156.992 29.8654 156.471 30.5692C155.982 31.2729 155.339 31.9155 154.544 32.4969C153.748 33.0783 152.815 33.5526 151.744 33.9198C150.703 34.2564 149.632 34.4247 148.531 34.4247ZM149.632 29.6512C150.948 29.6512 152.111 29.3146 153.121 28.6414C154.131 27.9682 154.911 27.0502 155.462 25.8874C156.043 24.7246 156.334 23.3782 156.334 21.8482C156.334 20.3488 156.043 19.0177 155.462 17.855C154.911 16.6616 154.131 15.7436 153.121 15.101C152.111 14.4278 150.948 14.0912 149.632 14.0912C148.317 14.0912 147.154 14.4278 146.144 15.101C145.134 15.7436 144.339 16.6616 143.757 17.855C143.206 19.0177 142.931 20.3488 142.931 21.8482C142.931 23.3782 143.206 24.7246 143.757 25.8874C144.339 27.0502 145.134 27.9682 146.144 28.6414C147.154 29.3146 148.317 29.6512 149.632 29.6512Z" fill="white"/>
<path d="M110.371 33.9665V9.77736H115.879L115.971 14.7345L114.915 15.2853C115.221 14.1837 115.818 13.1892 116.705 12.3018C117.592 11.3838 118.648 10.6495 119.872 10.0987C121.096 9.54786 122.351 9.27246 123.636 9.27246C125.472 9.27246 127.002 9.63966 128.226 10.3741C129.48 11.1085 130.414 12.21 131.026 13.6788C131.668 15.1476 131.99 16.9836 131.99 19.1868V33.9665H126.344V19.5999C126.344 18.3759 126.176 17.3661 125.839 16.5705C125.502 15.7443 124.982 15.1476 124.278 14.7804C123.575 14.3826 122.718 14.199 121.708 14.2296C120.882 14.2296 120.117 14.3673 119.413 14.6427C118.74 14.8875 118.143 15.2547 117.623 15.7443C117.133 16.2033 116.736 16.7388 116.43 17.3508C116.154 17.9628 116.016 18.636 116.016 19.3704V33.9665H113.217C112.666 33.9665 112.146 33.9665 111.656 33.9665C111.197 33.9665 110.769 33.9665 110.371 33.9665Z" fill="white"/>
<path d="M94.3545 34.4245C91.8147 34.4245 89.5656 33.889 87.6072 32.818C85.6795 31.747 84.1648 30.2935 83.0632 28.4575C81.9922 26.591 81.4567 24.4643 81.4567 22.0775C81.4567 20.1803 81.7627 18.4514 82.3747 16.8908C82.9867 15.3303 83.8282 13.9839 84.8992 12.8517C86.0008 11.6889 87.3013 10.8015 88.8007 10.1895C90.3306 9.54689 91.9983 9.22559 93.8037 9.22559C95.3949 9.22559 96.879 9.53159 98.256 10.1436C99.633 10.7556 100.826 11.5971 101.836 12.6681C102.846 13.7085 103.611 14.9631 104.131 16.4318C104.682 17.87 104.942 19.4459 104.912 21.1595L104.866 23.1332H85.2664L84.2107 19.2776H100.138L99.4035 20.0579V19.0481C99.3117 18.0995 99.0057 17.2733 98.4855 16.5695C97.9653 15.8351 97.2921 15.2691 96.4659 14.8713C95.6703 14.4429 94.7829 14.2287 93.8037 14.2287C92.3043 14.2287 91.0344 14.5194 89.994 15.1008C88.9842 15.6821 88.2192 16.5236 87.699 17.6252C87.1788 18.6962 86.9188 20.0426 86.9188 21.6644C86.9188 23.225 87.2401 24.5867 87.8827 25.7495C88.5559 26.9123 89.4891 27.815 90.6825 28.4575C91.9065 29.0695 93.3294 29.3755 94.9512 29.3755C96.0834 29.3755 97.1238 29.1919 98.0724 28.8247C99.021 28.4575 100.046 27.7997 101.148 26.8511L103.948 30.7525C103.121 31.5175 102.173 32.1754 101.102 32.7262C100.061 33.2464 98.9598 33.6595 97.797 33.9655C96.6342 34.2715 95.4867 34.4245 94.3545 34.4245Z" fill="white"/>
<path d="M68.1886 34.4255C65.9242 34.4255 63.8893 33.8747 62.0839 32.7731C60.2785 31.6715 58.8556 30.1721 57.8152 28.2749C56.7748 26.3777 56.2546 24.2357 56.2546 21.849C56.2546 19.4622 56.7748 17.3202 57.8152 15.423C58.8556 13.5258 60.2785 12.0264 62.0839 10.9249C63.8893 9.82326 65.9242 9.27246 68.1886 9.27246C70.3612 9.27246 72.3349 9.68556 74.1097 10.5118C75.8845 11.3379 77.2615 12.4854 78.2407 13.9542L75.1195 17.718C74.6605 17.0754 74.0791 16.494 73.3753 15.9738C72.6715 15.4536 71.9218 15.0405 71.1262 14.7345C70.3306 14.4285 69.535 14.2755 68.7394 14.2755C67.393 14.2755 66.1843 14.6121 65.1133 15.2853C64.0729 15.9279 63.2467 16.8306 62.6347 17.9934C62.0227 19.1256 61.7167 20.4108 61.7167 21.849C61.7167 23.2872 62.0227 24.5723 62.6347 25.7045C63.2773 26.8367 64.1341 27.7394 65.2051 28.4126C66.2761 29.0858 67.4695 29.4224 68.7853 29.4224C69.5809 29.4224 70.3459 29.3 71.0803 29.0552C71.8453 28.7798 72.5644 28.3973 73.2376 27.9077C73.9108 27.4181 74.5381 26.8061 75.1195 26.0717L78.2407 29.8814C77.2003 31.2278 75.7621 32.3294 73.9261 33.1862C72.1207 34.0124 70.2082 34.4255 68.1886 34.4255Z" fill="white"/>
<path d="M43.1572 34.4255C41.0152 34.4255 39.0874 34.0736 37.3738 33.3698C35.6908 32.6354 34.3138 31.595 33.2428 30.2486L36.9148 27.0815C37.8328 28.1219 38.8579 28.8716 39.9901 29.3306C41.1223 29.7896 42.3157 30.0191 43.5703 30.0191C44.0905 30.0191 44.5495 29.9579 44.9473 29.8355C45.3757 29.7131 45.7429 29.5295 46.0489 29.2847C46.3549 29.0399 46.5844 28.7645 46.7374 28.4585C46.921 28.1219 47.0128 27.7547 47.0128 27.3569C47.0128 26.6225 46.7374 26.0411 46.1866 25.6127C45.8806 25.3985 45.391 25.169 44.7178 24.9242C44.0752 24.6794 43.2337 24.4346 42.1933 24.1898C40.5409 23.7615 39.1639 23.2719 38.0623 22.7211C36.9607 22.1397 36.1039 21.4971 35.4919 20.7933C34.9717 20.2119 34.5739 19.554 34.2985 18.8196C34.0537 18.0852 33.9313 17.2896 33.9313 16.4328C33.9313 15.3618 34.1608 14.3979 34.6198 13.5411C35.1094 12.6537 35.7673 11.8887 36.5935 11.2461C37.4197 10.6036 38.3836 10.114 39.4852 9.77736C40.5868 9.44076 41.7343 9.27246 42.9277 9.27246C44.1517 9.27246 45.3298 9.42546 46.462 9.73146C47.6248 10.0375 48.6958 10.4812 49.675 11.0626C50.6848 11.6133 51.5416 12.2865 52.2454 13.0821L49.1242 16.5246C48.5428 15.9738 47.9002 15.4842 47.1964 15.0558C46.5232 14.6274 45.8347 14.2908 45.1309 14.046C44.4271 13.7706 43.7692 13.6329 43.1572 13.6329C42.5758 13.6329 42.0556 13.6941 41.5966 13.8165C41.1376 13.9083 40.7551 14.0613 40.4491 14.2755C40.1431 14.4897 39.8983 14.7651 39.7147 15.1017C39.5617 15.4077 39.4852 15.7749 39.4852 16.2033C39.5158 16.5705 39.6076 16.9224 39.7606 17.259C39.9442 17.565 40.189 17.8251 40.495 18.0393C40.8316 18.2535 41.3365 18.4983 42.0097 18.7737C42.6829 19.0491 43.555 19.3092 44.626 19.554C46.1254 19.9518 47.38 20.3955 48.3898 20.8851C49.3996 21.3747 50.1952 21.9408 50.7766 22.5834C51.358 23.1342 51.7711 23.7768 52.0159 24.5111C52.2607 25.2455 52.3831 26.0564 52.3831 26.9438C52.3831 28.382 51.97 29.6672 51.1438 30.7994C50.3482 31.9316 49.2466 32.819 47.839 33.4616C46.462 34.1042 44.9014 34.4255 43.1572 34.4255Z" fill="white"/>
<path d="M0.00012207 33.9657L12.5308 1.83594H18.1306L30.5695 33.9657H24.373L17.488 15.6976C17.335 15.3304 17.1208 14.7491 16.8454 13.9535C16.6006 13.1579 16.3252 12.3011 16.0192 11.3831C15.7132 10.4345 15.4378 9.56238 15.193 8.76679C14.9482 7.94059 14.7646 7.3439 14.6422 6.9767L15.7897 6.9308C15.6061 7.5428 15.3919 8.23129 15.1471 8.99628C14.9023 9.76128 14.6422 10.5569 14.3668 11.3831C14.0914 12.2093 13.816 13.0049 13.5406 13.7699C13.2958 14.5349 13.0663 15.2233 12.8521 15.8353L5.96711 33.9657H0.00012207ZM5.69171 26.6218L7.75721 21.4351H22.3993L24.6025 26.6218H5.69171Z" fill="white"/>
</g>
<defs>
<clipPath id="clip0_984_42">
<rect width="211" height="64" fill="white"/>
</clipPath>
</defs>
</svg>
