<svg width="211" height="64" viewBox="0 0 211 64" fill="none" xmlns="http://www.w3.org/2000/svg">
<path d="M163.707 64.0001C162.86 64.0001 162.085 63.8451 161.381 63.5351C160.678 63.2131 160.081 62.7778 159.592 62.2293C159.103 61.6807 158.752 61.0666 158.537 60.3868L160.057 59.7608C160.379 60.6194 160.856 61.2812 161.488 61.7463C162.132 62.1995 162.884 62.426 163.742 62.426C164.267 62.426 164.726 62.3426 165.12 62.1756C165.513 62.0087 165.817 61.7761 166.032 61.478C166.258 61.1679 166.372 60.8102 166.372 60.4047C166.372 59.8443 166.211 59.403 165.889 59.0811C165.579 58.7472 165.12 58.4967 164.511 58.3298L162.061 57.5785C161.095 57.2804 160.356 56.8093 159.843 56.1654C159.33 55.5214 159.074 54.7821 159.074 53.9473C159.074 53.2199 159.247 52.5819 159.592 52.0334C159.95 51.4729 160.439 51.0376 161.059 50.7276C161.691 50.4056 162.407 50.2446 163.206 50.2446C164.005 50.2446 164.726 50.3877 165.37 50.6739C166.026 50.9601 166.58 51.3477 167.034 51.8366C167.487 52.3136 167.821 52.8622 168.035 53.4823L166.533 54.1083C166.247 53.3571 165.817 52.7906 165.245 52.409C164.672 52.0155 163.999 51.8187 163.224 51.8187C162.747 51.8187 162.323 51.9022 161.954 52.0692C161.596 52.2242 161.316 52.4567 161.113 52.7668C160.922 53.0649 160.827 53.4226 160.827 53.84C160.827 54.3289 160.982 54.7642 161.292 55.1458C161.602 55.5274 162.073 55.8196 162.705 56.0223L164.941 56.6841C165.99 57.0061 166.783 57.4652 167.32 58.0615C167.856 58.6577 168.125 59.3971 168.125 60.2795C168.125 61.007 167.934 61.6509 167.552 62.2114C167.183 62.7719 166.664 63.2131 165.996 63.5351C165.34 63.8451 164.577 64.0001 163.707 64.0001Z" fill="white"/>
<path d="M144.06 63.7853V50.4591H145.813V57.9539L145.384 57.7751L151.752 50.4591H153.952L148.603 56.6303L148.693 55.3781L154.22 63.7853H152.127L147.906 57.4531L145.813 59.85V63.7853H144.06Z" fill="white"/>
<path d="M129.062 63.7853V50.4591H133.767C134.649 50.4591 135.424 50.626 136.092 50.9599C136.76 51.2938 137.279 51.7708 137.648 52.3909C138.03 53.011 138.221 53.7385 138.221 54.5732C138.221 55.5153 137.982 56.3143 137.505 56.9701C137.028 57.626 136.384 58.097 135.573 58.3832L138.668 63.7853H136.629L133.373 58.0076L134.536 58.6873H130.815V63.7853H129.062ZM130.815 57.0775H133.82C134.345 57.0775 134.804 56.9761 135.198 56.7734C135.591 56.5706 135.895 56.2785 136.11 55.8969C136.337 55.5153 136.45 55.0741 136.45 54.5732C136.45 54.0604 136.337 53.6192 136.11 53.2495C135.895 52.8679 135.591 52.5758 135.198 52.373C134.804 52.1703 134.345 52.069 133.82 52.069H130.815V57.0775Z" fill="white"/>
<path d="M116.327 64.0001C115.385 64.0001 114.503 63.8332 113.68 63.4993C112.857 63.1535 112.136 62.6705 111.516 62.0504C110.907 61.4303 110.43 60.7029 110.085 59.8681C109.739 59.0214 109.566 58.1032 109.566 57.1134C109.566 56.1117 109.739 55.1935 110.085 54.3588C110.43 53.524 110.907 52.7966 111.516 52.1765C112.136 51.5564 112.851 51.0794 113.662 50.7455C114.485 50.4116 115.373 50.2446 116.327 50.2446C117.281 50.2446 118.164 50.4175 118.975 50.7634C119.798 51.0973 120.513 51.5743 121.121 52.1944C121.741 52.8025 122.224 53.524 122.57 54.3588C122.928 55.1935 123.107 56.1117 123.107 57.1134C123.107 58.1032 122.928 59.0214 122.57 59.8681C122.224 60.7029 121.741 61.4303 121.121 62.0504C120.513 62.6705 119.798 63.1535 118.975 63.4993C118.164 63.8332 117.281 64.0001 116.327 64.0001ZM116.327 62.3724C117.067 62.3724 117.74 62.2412 118.349 61.9788C118.957 61.7046 119.481 61.3289 119.923 60.8519C120.376 60.363 120.722 59.8025 120.96 59.1705C121.211 58.5265 121.336 57.8409 121.336 57.1134C121.336 56.386 121.211 55.7063 120.96 55.0743C120.722 54.4422 120.376 53.8877 119.923 53.4107C119.481 52.9218 118.957 52.5462 118.349 52.2838C117.74 52.0095 117.067 51.8724 116.327 51.8724C115.6 51.8724 114.932 52.0095 114.324 52.2838C113.716 52.5462 113.185 52.9218 112.732 53.4107C112.291 53.8877 111.945 54.4422 111.694 55.0743C111.444 55.7063 111.319 56.386 111.319 57.1134C111.319 57.8409 111.444 58.5265 111.694 59.1705C111.945 59.8025 112.291 60.363 112.732 60.8519C113.185 61.3289 113.716 61.7046 114.324 61.9788C114.932 62.2412 115.6 62.3724 116.327 62.3724Z" fill="white"/>
<path d="M91.543 63.7853L87.8044 50.4591H89.6469L92.7772 62.1933H92.3479L95.6034 50.4591H97.4459L100.684 62.1933H100.236L103.385 50.4591H105.227L101.488 63.7853H99.5387L96.2832 52.1047H96.7483L93.4927 63.7853H91.543Z" fill="white"/>
<path d="M78.6736 63.7853V52.069H75.0603V50.4591H84.0041V52.069H80.4445V63.7853H78.6736Z" fill="white"/>
<path d="M62.1018 63.7853V50.4591H70.7773V52.069H63.8548V56.2904H70.4196V57.9003H63.8548V62.1754H70.7773V63.7853H62.1018Z" fill="white"/>
<path d="M45.4972 63.7853V50.4591H46.964L54.6199 61.2274L53.958 61.2989V50.4591H55.7289V63.7853H54.2621L46.642 52.9454L47.2502 52.8739V63.7853H45.4972Z" fill="white"/>
<path fill-rule="evenodd" clip-rule="evenodd" d="M193.656 10.4097C194.428 10.079 195.304 10.3301 195.897 10.9238L199.067 14.0937C199.196 14.2222 199.095 14.4469 198.914 14.4469C197.639 14.4469 196.512 14.7582 195.534 15.3807C194.586 16.0033 193.845 16.8629 193.311 17.9596C192.778 19.0562 192.511 20.3161 192.511 21.7392C192.511 23.1916 192.778 24.4808 193.311 25.6072C193.845 26.7043 194.586 27.5639 195.534 28.1861C196.512 28.8087 197.639 29.12 198.914 29.12C200.188 29.12 201.315 28.8087 202.293 28.1861C203.271 27.5639 204.027 26.7043 204.561 25.6072C205.124 24.4808 205.405 23.1916 205.405 21.7392C205.405 21.6489 205.404 21.5591 205.402 21.4701L205.398 21.3487L205.398 21.3389C205.385 21.017 205.793 20.8197 206.021 21.0475L209.946 24.973C210.455 25.4819 210.741 26.172 210.741 26.8917V33.5221H205.183V30.2335C205.026 30.439 204.857 30.6386 204.676 30.8325C204.268 31.2697 203.799 31.677 203.271 32.0546C202.471 32.618 201.567 33.0774 200.559 33.4332C199.581 33.7889 198.528 33.9664 197.402 33.9664C195.475 33.9664 193.726 33.4332 192.155 32.3659C190.584 31.2986 189.324 29.8462 188.376 28.0086C187.427 26.1707 186.953 24.081 186.953 21.7392C186.953 19.3973 187.427 17.3077 188.376 15.4697C189.324 13.6317 190.614 12.194 192.244 11.1565C192.699 10.8673 193.169 10.6184 193.656 10.4097Z" fill="white"/>
<path fill-rule="evenodd" clip-rule="evenodd" d="M210.743 10.089C210.744 9.81891 210.525 9.59982 210.255 9.59982H199.371C198.87 9.59982 198.619 10.2052 198.973 10.5592L209.784 21.3701C210.138 21.7242 210.743 21.4734 210.743 20.9727V10.089Z" fill="#FF3A41"/>
<path d="M168.663 33.9661V9.77696H174.217L174.309 17.4881L173.529 15.7439C173.865 14.5199 174.447 13.4183 175.273 12.4391C176.099 11.4599 177.048 10.695 178.119 10.1442C179.22 9.56276 180.368 9.27206 181.561 9.27206C182.082 9.27206 182.571 9.31797 183.03 9.40977C183.52 9.50157 183.918 9.60866 184.224 9.73106L182.709 15.9275C182.372 15.7439 181.959 15.5909 181.47 15.4685C180.98 15.3461 180.49 15.2849 180.001 15.2849C179.236 15.2849 178.501 15.4379 177.798 15.7439C177.124 16.0193 176.528 16.4171 176.007 16.9373C175.487 17.4575 175.074 18.0695 174.768 18.7733C174.493 19.4465 174.355 20.2115 174.355 21.0683V33.9661H168.663Z" fill="white"/>
<path d="M148.531 34.4247C146.389 34.4247 144.461 33.8892 142.747 32.8182C141.064 31.7166 139.718 30.2326 138.708 28.366C137.729 26.4688 137.239 24.2962 137.239 21.8482C137.239 19.4308 137.729 17.2736 138.708 15.3764C139.687 13.4792 141.018 11.9951 142.701 10.9241C144.415 9.82252 146.343 9.27172 148.485 9.27172C149.648 9.27172 150.765 9.45532 151.836 9.82252C152.937 10.1897 153.916 10.6946 154.773 11.3372C155.63 11.9492 156.303 12.6377 156.793 13.4027C157.313 14.1677 157.604 14.9633 157.665 15.7895L156.15 15.9731V0H161.796V33.9657H156.334L156.196 28.2742L157.298 28.366C157.267 29.131 156.992 29.8654 156.471 30.5692C155.982 31.2729 155.339 31.9155 154.544 32.4969C153.748 33.0783 152.815 33.5526 151.744 33.9198C150.703 34.2564 149.632 34.4247 148.531 34.4247ZM149.632 29.6512C150.948 29.6512 152.111 29.3146 153.121 28.6414C154.131 27.9682 154.911 27.0502 155.462 25.8874C156.043 24.7246 156.334 23.3782 156.334 21.8482C156.334 20.3488 156.043 19.0177 155.462 17.855C154.911 16.6616 154.131 15.7436 153.121 15.101C152.111 14.4278 150.948 14.0912 149.632 14.0912C148.317 14.0912 147.154 14.4278 146.144 15.101C145.134 15.7436 144.339 16.6616 143.757 17.855C143.206 19.0177 142.931 20.3488 142.931 21.8482C142.931 23.3782 143.206 24.7246 143.757 25.8874C144.339 27.0502 145.134 27.9682 146.144 28.6414C147.154 29.3146 148.317 29.6512 149.632 29.6512Z" fill="white"/>
<path d="M110.371 33.9661V9.77696H115.879L115.971 14.7341L114.915 15.2849C115.221 14.1833 115.818 13.1888 116.705 12.3014C117.592 11.3834 118.648 10.6491 119.872 10.0983C121.096 9.54746 122.351 9.27206 123.636 9.27206C125.472 9.27206 127.002 9.63926 128.226 10.3737C129.48 11.1081 130.414 12.2096 131.026 13.6784C131.668 15.1472 131.99 16.9832 131.99 19.1864V33.9661H126.344V19.5995C126.344 18.3755 126.176 17.3657 125.839 16.5701C125.502 15.7439 124.982 15.1472 124.278 14.78C123.575 14.3822 122.718 14.1986 121.708 14.2292C120.882 14.2292 120.117 14.3669 119.413 14.6423C118.74 14.8871 118.143 15.2543 117.623 15.7439C117.133 16.2029 116.736 16.7384 116.43 17.3504C116.154 17.9624 116.016 18.6356 116.016 19.37V33.9661H113.217C112.666 33.9661 112.146 33.9661 111.656 33.9661C111.197 33.9661 110.769 33.9661 110.371 33.9661Z" fill="white"/>
<path d="M94.3545 34.4247C91.8147 34.4247 89.5656 33.8892 87.6072 32.8182C85.6795 31.7472 84.1648 30.2937 83.0632 28.4577C81.9922 26.5912 81.4567 24.4645 81.4567 22.0777C81.4567 20.1805 81.7627 18.4516 82.3747 16.891C82.9867 15.3305 83.8282 13.9841 84.8992 12.8519C86.0008 11.6891 87.3013 10.8017 88.8007 10.1897C90.3306 9.5471 91.9983 9.2258 93.8037 9.2258C95.3949 9.2258 96.879 9.5318 98.256 10.1438C99.633 10.7558 100.826 11.5973 101.836 12.6683C102.846 13.7087 103.611 14.9633 104.131 16.432C104.682 17.8702 104.942 19.4461 104.912 21.1597L104.866 23.1334H85.2664L84.2107 19.2778H100.138L99.4035 20.0581V19.0483C99.3117 18.0997 99.0057 17.2735 98.4855 16.5697C97.9653 15.8353 97.2921 15.2693 96.4659 14.8715C95.6703 14.4431 94.7829 14.2289 93.8037 14.2289C92.3043 14.2289 91.0344 14.5196 89.994 15.101C88.9842 15.6823 88.2192 16.5238 87.699 17.6254C87.1788 18.6964 86.9188 20.0428 86.9188 21.6646C86.9188 23.2252 87.2401 24.5869 87.8827 25.7497C88.5559 26.9125 89.4891 27.8152 90.6825 28.4577C91.9065 29.0697 93.3294 29.3757 94.9512 29.3757C96.0834 29.3757 97.1238 29.1921 98.0724 28.8249C99.021 28.4577 100.046 27.7999 101.148 26.8513L103.948 30.7527C103.121 31.5177 102.173 32.1756 101.102 32.7264C100.061 33.2466 98.9598 33.6597 97.797 33.9657C96.6342 34.2717 95.4867 34.4247 94.3545 34.4247Z" fill="white"/>
<path d="M68.1886 34.4251C65.9242 34.4251 63.8893 33.8743 62.0839 32.7727C60.2785 31.6711 58.8556 30.1717 57.8152 28.2745C56.7748 26.3773 56.2546 24.2353 56.2546 21.8486C56.2546 19.4618 56.7748 17.3198 57.8152 15.4226C58.8556 13.5254 60.2785 12.026 62.0839 10.9245C63.8893 9.82286 65.9242 9.27206 68.1886 9.27206C70.3612 9.27206 72.3349 9.68516 74.1097 10.5114C75.8845 11.3375 77.2615 12.485 78.2407 13.9538L75.1195 17.7176C74.6605 17.075 74.0791 16.4936 73.3753 15.9734C72.6715 15.4532 71.9218 15.0401 71.1262 14.7341C70.3306 14.4281 69.535 14.2751 68.7394 14.2751C67.393 14.2751 66.1843 14.6117 65.1133 15.2849C64.0729 15.9275 63.2467 16.8302 62.6347 17.993C62.0227 19.1252 61.7167 20.4104 61.7167 21.8486C61.7167 23.2868 62.0227 24.5719 62.6347 25.7041C63.2773 26.8363 64.1341 27.739 65.2051 28.4122C66.2761 29.0854 67.4695 29.422 68.7853 29.422C69.5809 29.422 70.3459 29.2996 71.0803 29.0548C71.8453 28.7794 72.5644 28.3969 73.2376 27.9073C73.9108 27.4177 74.5381 26.8057 75.1195 26.0713L78.2407 29.881C77.2003 31.2274 75.7621 32.329 73.9261 33.1858C72.1207 34.012 70.2082 34.4251 68.1886 34.4251Z" fill="white"/>
<path d="M43.1572 34.4251C41.0152 34.4251 39.0874 34.0732 37.3738 33.3694C35.6908 32.635 34.3138 31.5946 33.2428 30.2482L36.9148 27.0811C37.8328 28.1215 38.8579 28.8712 39.9901 29.3302C41.1223 29.7892 42.3157 30.0187 43.5703 30.0187C44.0905 30.0187 44.5495 29.9575 44.9473 29.8351C45.3757 29.7127 45.7429 29.5291 46.0489 29.2843C46.3549 29.0395 46.5844 28.7641 46.7374 28.4581C46.921 28.1215 47.0128 27.7543 47.0128 27.3565C47.0128 26.6221 46.7374 26.0407 46.1866 25.6123C45.8806 25.3981 45.391 25.1686 44.7178 24.9238C44.0752 24.679 43.2337 24.4342 42.1933 24.1894C40.5409 23.7611 39.1639 23.2715 38.0623 22.7207C36.9607 22.1393 36.1039 21.4967 35.4919 20.7929C34.9717 20.2115 34.5739 19.5536 34.2985 18.8192C34.0537 18.0848 33.9313 17.2892 33.9313 16.4324C33.9313 15.3614 34.1608 14.3975 34.6198 13.5407C35.1094 12.6533 35.7673 11.8883 36.5935 11.2457C37.4197 10.6032 38.3836 10.1136 39.4852 9.77696C40.5868 9.44036 41.7343 9.27206 42.9277 9.27206C44.1517 9.27206 45.3298 9.42506 46.462 9.73106C47.6248 10.0371 48.6958 10.4808 49.675 11.0622C50.6848 11.6129 51.5416 12.2861 52.2454 13.0817L49.1242 16.5242C48.5428 15.9734 47.9002 15.4838 47.1964 15.0554C46.5232 14.627 45.8347 14.2904 45.1309 14.0456C44.4271 13.7702 43.7692 13.6325 43.1572 13.6325C42.5758 13.6325 42.0556 13.6937 41.5966 13.8161C41.1376 13.9079 40.7551 14.0609 40.4491 14.2751C40.1431 14.4893 39.8983 14.7647 39.7147 15.1013C39.5617 15.4073 39.4852 15.7745 39.4852 16.2029C39.5158 16.5701 39.6076 16.922 39.7606 17.2586C39.9442 17.5646 40.189 17.8247 40.495 18.0389C40.8316 18.2531 41.3365 18.4979 42.0097 18.7733C42.6829 19.0487 43.555 19.3088 44.626 19.5536C46.1254 19.9514 47.38 20.3951 48.3898 20.8847C49.3996 21.3743 50.1952 21.9404 50.7766 22.583C51.358 23.1338 51.7711 23.7764 52.0159 24.5107C52.2607 25.2451 52.3831 26.056 52.3831 26.9434C52.3831 28.3816 51.97 29.6668 51.1438 30.799C50.3482 31.9312 49.2466 32.8186 47.839 33.4612C46.462 34.1038 44.9014 34.4251 43.1572 34.4251Z" fill="white"/>
<path d="M0.00012207 33.9659L12.5308 1.83615H18.1306L30.5695 33.9659H24.373L17.488 15.6978C17.335 15.3306 17.1208 14.7493 16.8454 13.9537C16.6006 13.1581 16.3252 12.3013 16.0192 11.3833C15.7132 10.4347 15.4378 9.56259 15.193 8.767C14.9482 7.9408 14.7646 7.34411 14.6422 6.97691L15.7897 6.93101C15.6061 7.54301 15.3919 8.2315 15.1471 8.99649C14.9023 9.76149 14.6422 10.5571 14.3668 11.3833C14.0914 12.2095 13.816 13.0051 13.5406 13.7701C13.2958 14.5351 13.0663 15.2235 12.8521 15.8355L5.96711 33.9659H0.00012207ZM5.69171 26.622L7.75721 21.4353H22.3993L24.6025 26.622H5.69171Z" fill="white"/>
</svg>
